<svg width="193" height="28" viewBox="0 0 193 28" fill="none" xmlns="http://www.w3.org/2000/svg">
<path d="M0 9.33545V14.2599C1.69536 14.2588 3.37431 14.5894 4.94079 15.233C6.50727 15.8766 7.93052 16.8204 9.12912 18.0106C10.3274 19.2002 11.2777 20.6127 11.9257 22.1672C12.5737 23.7217 12.9067 25.3877 12.9056 27.07H17.8633C17.8588 22.3684 15.9755 17.8607 12.6265 14.5359C9.27759 11.2111 4.7366 9.34082 0 9.33545H0Z" fill="white"/>
<path d="M24.7935 0.469971H16.9366C20.9113 2.97011 24.2791 6.31253 26.7985 10.2574V2.45867C26.7981 1.93111 26.5867 1.42528 26.2108 1.05236C25.8348 0.679448 25.325 0.469971 24.7935 0.469971Z" fill="white"/>
<path d="M4.93657 0.469971H0V4.90377C5.92089 4.90989 11.5975 7.24719 15.7843 11.4028C19.9711 15.5584 22.326 21.1929 22.3323 27.07H26.7985V22.17C25.7887 16.7845 23.1596 11.8289 19.2572 7.95542C15.3548 4.08196 10.3622 1.47228 4.93657 0.469971Z" fill="white"/>
<path d="M42.4734 22.0997C41.3441 22.0997 40.3808 21.9137 39.5837 21.5417C38.7998 21.1564 38.1621 20.6316 37.6705 19.9673C37.1922 19.303 36.8401 18.5523 36.6142 17.7153C36.3884 16.865 36.2755 15.9814 36.2755 15.0647V7.85036H39.0257V15.0647C39.0257 15.6493 39.0788 16.2206 39.1851 16.7786C39.3047 17.3233 39.4973 17.8149 39.763 18.2534C40.0288 18.6918 40.3808 19.0372 40.8193 19.2897C41.2577 19.5421 41.8025 19.6683 42.4535 19.6683C43.1178 19.6683 43.6692 19.5421 44.1076 19.2897C44.5593 19.024 44.9114 18.6719 45.1638 18.2334C45.4296 17.795 45.6222 17.3034 45.7418 16.7587C45.8614 16.2007 45.9211 15.636 45.9211 15.0647V7.85036H48.6514V15.0647C48.6514 16.0346 48.5319 16.9447 48.2927 17.795C48.0668 18.6453 47.7015 19.396 47.1966 20.047C46.705 20.6847 46.0673 21.1896 45.2834 21.5616C44.4995 21.9203 43.5629 22.0997 42.4734 22.0997Z" fill="white"/>
<path d="M57.2451 22.1993C56.4346 22.1993 55.7172 22.02 55.0927 21.6612C54.4816 21.2892 54.0033 20.791 53.6578 20.1666V26.2449H50.9873V11.5572H53.319V13.3508C53.7176 12.7396 54.2225 12.2613 54.8337 11.9159C55.4448 11.5572 56.1423 11.3778 56.9262 11.3778C57.6304 11.3778 58.2748 11.5173 58.8593 11.7963C59.4572 12.0753 59.9754 12.4673 60.4138 12.9721C60.8523 13.4637 61.1911 14.035 61.4302 14.6861C61.6826 15.3238 61.8089 16.0147 61.8089 16.7587C61.8089 17.7684 61.6096 18.6852 61.211 19.5089C60.8257 20.3326 60.2876 20.9903 59.5967 21.4819C58.9191 21.9602 58.1353 22.1993 57.2451 22.1993ZM56.3483 19.9274C56.7601 19.9274 57.1322 19.841 57.4643 19.6683C57.7965 19.4956 58.0821 19.2631 58.3213 18.9708C58.5737 18.6652 58.7597 18.3264 58.8793 17.9544C59.0121 17.5691 59.0786 17.1705 59.0786 16.7587C59.0786 16.3202 59.0055 15.915 58.8593 15.543C58.7265 15.171 58.5272 14.8455 58.2615 14.5665C57.9957 14.2742 57.6835 14.0483 57.3248 13.8889C56.9794 13.7295 56.6007 13.6497 56.1888 13.6497C55.9364 13.6497 55.6773 13.6962 55.4116 13.7892C55.1592 13.869 54.9134 13.9885 54.6742 14.148C54.4351 14.3074 54.2225 14.4934 54.0365 14.706C53.8638 14.9186 53.7376 15.1511 53.6578 15.4035V17.8548C53.8173 18.2401 54.0299 18.5922 54.2956 18.911C54.5746 19.2299 54.8934 19.4823 55.2522 19.6683C55.6109 19.841 55.9763 19.9274 56.3483 19.9274Z" fill="white"/>
<path d="M67.7037 22.0598C67.0128 22.0598 66.3751 21.927 65.7905 21.6612C65.2192 21.3822 64.7209 20.9969 64.2958 20.5054C63.8839 20.0138 63.5651 19.4491 63.3392 18.8114C63.1133 18.1736 63.0004 17.4961 63.0004 16.7786C63.0004 16.0213 63.12 15.3171 63.3591 14.6661C63.5983 14.0151 63.9304 13.4438 64.3556 12.9522C64.794 12.4473 65.3055 12.0621 65.8901 11.7963C66.488 11.5173 67.1457 11.3778 67.8631 11.3778C68.6736 11.3778 69.3844 11.5638 69.9955 11.9358C70.6067 12.2946 71.1115 12.7795 71.5101 13.3907V11.5572H73.8418V21.5018C73.8418 22.5381 73.5894 23.4216 73.0845 24.1524C72.5929 24.8964 71.9087 25.4611 71.0318 25.8464C70.1549 26.2449 69.1585 26.4442 68.0425 26.4442C66.9131 26.4442 65.9565 26.2516 65.1727 25.8663C64.3888 25.4943 63.7178 24.9628 63.1598 24.272L64.6147 22.857C65.0132 23.3486 65.5115 23.7339 66.1093 24.0129C66.7205 24.2919 67.3649 24.4314 68.0425 24.4314C68.6138 24.4314 69.1319 24.3251 69.5969 24.1125C70.0752 23.9132 70.4539 23.5944 70.7329 23.1559C71.0252 22.7308 71.1713 22.1794 71.1713 21.5018V20.1865C70.8259 20.7844 70.3343 21.2494 69.6966 21.5815C69.0721 21.9004 68.4078 22.0598 67.7037 22.0598ZM68.6005 19.9274C68.8928 19.9274 69.1718 19.8809 69.4375 19.7879C69.7032 19.6949 69.949 19.5687 70.1749 19.4093C70.4007 19.2498 70.6 19.0638 70.7728 18.8512C70.9455 18.6254 71.0783 18.3995 71.1713 18.1736V15.6825C71.0119 15.2706 70.786 14.9119 70.4937 14.6063C70.2147 14.3008 69.8959 14.0682 69.5371 13.9088C69.1917 13.7361 68.8263 13.6497 68.441 13.6497C68.0292 13.6497 67.6572 13.7361 67.325 13.9088C66.9929 14.0815 66.7072 14.3273 66.4681 14.6462C66.2289 14.9518 66.0429 15.2972 65.91 15.6825C65.7905 16.0545 65.7307 16.4465 65.7307 16.8583C65.7307 17.2835 65.8038 17.6821 65.9499 18.0541C66.0961 18.4261 66.2953 18.7516 66.5478 19.0306C66.8135 19.3096 67.1191 19.5288 67.4645 19.6883C67.8232 19.8477 68.2019 19.9274 68.6005 19.9274Z" fill="white"/>
<path d="M82.4669 13.869C81.6565 13.869 80.9324 14.0284 80.2947 14.3473C79.6569 14.6528 79.1986 15.0979 78.9196 15.6825V22H76.2491V11.5572H78.7003V13.7892C79.0723 13.0718 79.544 12.5071 80.1153 12.0953C80.6866 11.6834 81.2911 11.4575 81.9289 11.4177C82.075 11.4177 82.1879 11.4177 82.2676 11.4177C82.3474 11.4177 82.4138 11.4243 82.4669 11.4376V13.869Z" fill="white"/>
<path d="M83.1802 18.911C83.1802 18.2334 83.3662 17.6422 83.7382 17.1373C84.1235 16.6192 84.6549 16.2206 85.3325 15.9416C86.0101 15.6626 86.7874 15.5231 87.6642 15.5231C88.1027 15.5231 88.5478 15.5563 88.9995 15.6227C89.4512 15.6891 89.8431 15.7954 90.1753 15.9416V15.3836C90.1753 14.7193 89.976 14.2078 89.5774 13.849C89.1921 13.4903 88.6142 13.3109 87.8436 13.3109C87.2723 13.3109 86.7276 13.4106 86.2094 13.6099C85.6913 13.8092 85.1465 14.1015 84.5752 14.4868L83.7183 12.733C84.4091 12.2813 85.1133 11.9425 85.8308 11.7166C86.5615 11.4907 87.3254 11.3778 88.1226 11.3778C89.6106 11.3778 90.7665 11.7498 91.5903 12.4938C92.4273 13.2379 92.8458 14.3008 92.8458 15.6825V19.0107C92.8458 19.2897 92.8923 19.489 92.9853 19.6085C93.0916 19.7281 93.2577 19.8012 93.4835 19.8278V22C93.2444 22.0399 93.0252 22.0731 92.8259 22.0997C92.6399 22.1263 92.4804 22.1395 92.3476 22.1395C91.8161 22.1395 91.4109 22.02 91.1319 21.7808C90.8662 21.5417 90.7001 21.2494 90.6337 20.9039L90.5739 20.3658C90.1222 20.9504 89.5575 21.4022 88.8799 21.721C88.2023 22.0399 87.5114 22.1993 86.8073 22.1993C86.1164 22.1993 85.492 22.0598 84.9339 21.7808C84.3892 21.4885 83.9574 21.0966 83.6385 20.605C83.333 20.1001 83.1802 19.5355 83.1802 18.911ZM89.6771 19.4491C89.8232 19.2897 89.9428 19.1302 90.0358 18.9708C90.1288 18.8114 90.1753 18.6652 90.1753 18.5324V17.4761C89.8564 17.3433 89.511 17.2436 89.139 17.1772C88.767 17.0975 88.4149 17.0576 88.0827 17.0576C87.3919 17.0576 86.8206 17.2104 86.3688 17.516C85.9304 17.8083 85.7112 18.2002 85.7112 18.6918C85.7112 18.9575 85.7843 19.21 85.9304 19.4491C86.0765 19.6883 86.2891 19.8809 86.5681 20.0271C86.8471 20.1732 87.1793 20.2463 87.5646 20.2463C87.9632 20.2463 88.3551 20.1732 88.7404 20.0271C89.1257 19.8676 89.4379 19.675 89.6771 19.4491Z" fill="white"/>
<path d="M94.7036 16.7786C94.7036 15.7689 94.9029 14.8588 95.3014 14.0483C95.7 13.2246 96.2514 12.5736 96.9556 12.0953C97.6597 11.617 98.4635 11.3778 99.367 11.3778C100.138 11.3778 100.828 11.5705 101.44 11.9558C102.064 12.3278 102.549 12.8061 102.894 13.3907V7.45178H105.565V19.0107C105.565 19.2897 105.611 19.489 105.704 19.6085C105.797 19.7281 105.957 19.8012 106.183 19.8278V22C105.718 22.093 105.339 22.1395 105.047 22.1395C104.568 22.1395 104.17 22.02 103.851 21.7808C103.545 21.5417 103.373 21.2294 103.333 20.8441L103.293 20.1865C102.908 20.8375 102.383 21.3357 101.719 21.6812C101.068 22.0266 100.383 22.1993 99.6659 22.1993C98.9485 22.1993 98.2842 22.0598 97.673 21.7808C97.0751 21.5018 96.5503 21.1165 96.0986 20.6249C95.6602 20.1333 95.3147 19.562 95.0623 18.911C94.8231 18.2467 94.7036 17.5359 94.7036 16.7786ZM102.894 18.1736V15.6825C102.762 15.2972 102.549 14.9518 102.257 14.6462C101.964 14.3406 101.639 14.1015 101.28 13.9287C100.921 13.7427 100.563 13.6497 100.204 13.6497C99.7921 13.6497 99.4201 13.7361 99.088 13.9088C98.7558 14.0815 98.4635 14.314 98.2111 14.6063C97.9719 14.8986 97.7859 15.2374 97.6531 15.6227C97.5335 16.008 97.4737 16.4132 97.4737 16.8384C97.4737 17.2636 97.5401 17.6688 97.673 18.0541C97.8192 18.4261 98.0251 18.7516 98.2908 19.0306C98.5565 19.3096 98.8621 19.5288 99.2076 19.6883C99.5663 19.8477 99.9516 19.9274 100.363 19.9274C100.616 19.9274 100.868 19.8875 101.121 19.8078C101.386 19.7148 101.632 19.5953 101.858 19.4491C102.097 19.2897 102.303 19.1037 102.476 18.8911C102.662 18.6652 102.801 18.4261 102.894 18.1736Z" fill="white"/>
<path d="M113.029 22.1993C112.192 22.1993 111.435 22.0598 110.757 21.7808C110.079 21.4885 109.502 21.0966 109.023 20.605C108.545 20.1001 108.173 19.5288 107.907 18.8911C107.655 18.2401 107.529 17.5558 107.529 16.8384C107.529 15.8419 107.748 14.9318 108.186 14.1081C108.638 13.2844 109.276 12.6267 110.099 12.1351C110.936 11.6303 111.92 11.3778 113.049 11.3778C114.192 11.3778 115.168 11.6303 115.979 12.1351C116.789 12.6267 117.407 13.2844 117.832 14.1081C118.27 14.9186 118.49 15.7954 118.49 16.7388C118.49 16.8982 118.483 17.0643 118.47 17.237C118.456 17.3964 118.443 17.5293 118.43 17.6356H110.359C110.412 18.167 110.564 18.632 110.817 19.0306C111.083 19.4292 111.415 19.7348 111.813 19.9473C112.225 20.1466 112.664 20.2463 113.129 20.2463C113.66 20.2463 114.158 20.1201 114.623 19.8676C115.102 19.6019 115.427 19.2565 115.6 18.8313L117.892 19.469C117.639 20.0005 117.274 20.4721 116.796 20.884C116.331 21.2959 115.779 21.6214 115.141 21.8605C114.504 22.0864 113.8 22.1993 113.029 22.1993ZM110.299 15.9416H115.759C115.706 15.4101 115.553 14.9518 115.301 14.5665C115.062 14.1679 114.743 13.8623 114.344 13.6497C113.946 13.4239 113.501 13.3109 113.009 13.3109C112.531 13.3109 112.092 13.4239 111.694 13.6497C111.308 13.8623 110.99 14.1679 110.737 14.5665C110.498 14.9518 110.352 15.4101 110.299 15.9416Z" fill="white"/>
<path d="M119.578 20.2263C119.857 20.4256 120.223 20.5984 120.674 20.7445C121.139 20.8906 121.671 20.9637 122.269 20.9637C122.96 20.9637 123.518 20.8508 123.943 20.6249C124.368 20.3858 124.694 20.0337 124.919 19.5687C125.145 19.0904 125.298 18.4992 125.378 17.795C125.457 17.0908 125.497 16.2671 125.497 15.3238V7.85036H126.892V15.0448C126.892 16.1077 126.839 17.0775 126.733 17.9544C126.627 18.8313 126.421 19.5886 126.115 20.2263C125.81 20.8641 125.351 21.3557 124.74 21.7011C124.129 22.0465 123.318 22.2193 122.309 22.2193C121.658 22.2193 121.08 22.1462 120.575 22C120.07 21.8539 119.605 21.6347 119.18 21.3424L119.578 20.2263Z" fill="white"/>
<path d="M134.239 22.1993C133.495 22.1993 132.804 22.0598 132.167 21.7808C131.542 21.4885 130.998 21.0966 130.533 20.605C130.081 20.1001 129.729 19.5288 129.476 18.8911C129.224 18.2401 129.098 17.5558 129.098 16.8384C129.098 16.0944 129.224 15.4035 129.476 14.7658C129.729 14.1147 130.087 13.5434 130.552 13.0519C131.017 12.547 131.562 12.1551 132.187 11.876C132.824 11.5838 133.515 11.4376 134.259 11.4376C135.003 11.4376 135.688 11.5838 136.312 11.876C136.936 12.1551 137.481 12.547 137.946 13.0519C138.411 13.5434 138.77 14.1147 139.022 14.7658C139.275 15.4035 139.401 16.0944 139.401 16.8384C139.401 17.5558 139.275 18.2401 139.022 18.8911C138.77 19.5288 138.411 20.1001 137.946 20.605C137.494 21.0966 136.95 21.4885 136.312 21.7808C135.688 22.0598 134.997 22.1993 134.239 22.1993ZM130.473 16.8583C130.473 17.6289 130.639 18.3331 130.971 18.9708C131.316 19.5953 131.775 20.0935 132.346 20.4655C132.917 20.8242 133.548 21.0036 134.239 21.0036C134.93 21.0036 135.561 20.8176 136.133 20.4456C136.704 20.0736 137.162 19.5687 137.508 18.931C137.853 18.2799 138.026 17.5758 138.026 16.8185C138.026 16.0479 137.853 15.3437 137.508 14.706C137.162 14.0682 136.704 13.5634 136.133 13.1914C135.561 12.8194 134.93 12.6334 134.239 12.6334C133.548 12.6334 132.917 12.826 132.346 13.2113C131.788 13.5966 131.336 14.1081 130.991 14.7458C130.645 15.3703 130.473 16.0744 130.473 16.8583Z" fill="white"/>
<path d="M141.568 17.7153V11.617H142.923V17.4761C142.923 18.6586 143.122 19.5421 143.521 20.1267C143.933 20.7113 144.537 21.0036 145.334 21.0036C145.866 21.0036 146.377 20.8906 146.869 20.6648C147.374 20.4256 147.819 20.0935 148.204 19.6683C148.59 19.2299 148.882 18.725 149.081 18.1537V11.617H150.436V20.3658C150.436 20.5519 150.476 20.6914 150.556 20.7844C150.636 20.8641 150.755 20.9106 150.915 20.9239V22C150.755 22.0133 150.629 22.02 150.536 22.02C150.443 22.0333 150.357 22.0399 150.277 22.0399C150.011 22.0133 149.779 21.907 149.579 21.721C149.393 21.535 149.294 21.3092 149.28 21.0434L149.241 19.6484C148.789 20.4456 148.171 21.07 147.387 21.5217C146.617 21.9735 145.779 22.1993 144.876 22.1993C143.787 22.1993 142.963 21.8207 142.405 21.0634C141.847 20.3061 141.568 19.19 141.568 17.7153Z" fill="white"/>
<path d="M158.682 12.8127C157.778 12.8393 156.981 13.0917 156.29 13.57C155.613 14.0483 155.135 14.706 154.856 15.543V22H153.5V11.617H154.776V14.1081C155.135 13.3774 155.606 12.7861 156.191 12.3344C156.789 11.8827 157.42 11.6303 158.084 11.5771C158.217 11.5638 158.33 11.5572 158.423 11.5572C158.529 11.5572 158.616 11.5638 158.682 11.5771V12.8127Z" fill="white"/>
<path d="M169.216 22H167.861V16.2007C167.861 14.9783 167.682 14.0882 167.323 13.5302C166.964 12.9589 166.4 12.6732 165.629 12.6732C165.098 12.6732 164.573 12.8061 164.055 13.0718C163.536 13.3242 163.078 13.6763 162.679 14.128C162.294 14.5665 162.015 15.0713 161.842 15.6426V22H160.487V11.617H161.723V13.9686C162.002 13.4637 162.367 13.0253 162.819 12.6533C163.271 12.268 163.782 11.969 164.353 11.7565C164.925 11.5439 165.516 11.4376 166.127 11.4376C166.698 11.4376 167.183 11.5439 167.582 11.7565C167.981 11.969 168.299 12.2746 168.539 12.6732C168.778 13.0585 168.95 13.5302 169.057 14.0882C169.163 14.6329 169.216 15.2441 169.216 15.9217V22Z" fill="white"/>
<path d="M176.59 22.1993C175.846 22.1993 175.155 22.0598 174.518 21.7808C173.88 21.4885 173.328 21.0966 172.863 20.605C172.398 20.1001 172.033 19.5222 171.767 18.8712C171.515 18.2201 171.389 17.5226 171.389 16.7786C171.389 15.8087 171.608 14.9186 172.046 14.1081C172.498 13.2977 173.116 12.6533 173.9 12.175C174.684 11.6834 175.574 11.4376 176.57 11.4376C177.593 11.4376 178.483 11.6834 179.241 12.175C180.011 12.6666 180.616 13.3176 181.054 14.128C181.493 14.9252 181.712 15.8021 181.712 16.7587C181.712 16.865 181.712 16.9713 181.712 17.0775C181.712 17.1705 181.705 17.2436 181.692 17.2968H172.804C172.87 18.0408 173.076 18.7051 173.421 19.2897C173.78 19.861 174.238 20.3193 174.797 20.6648C175.368 20.9969 175.986 21.163 176.65 21.163C177.328 21.163 177.965 20.9903 178.563 20.6449C179.174 20.2994 179.599 19.8477 179.839 19.2897L181.014 19.6085C180.802 20.1001 180.476 20.5452 180.038 20.9438C179.599 21.3424 179.081 21.6546 178.483 21.8805C177.899 22.093 177.268 22.1993 176.59 22.1993ZM172.764 16.3202H180.436C180.383 15.5629 180.177 14.8986 179.819 14.3273C179.473 13.756 179.015 13.3109 178.444 12.9921C177.886 12.6599 177.268 12.4938 176.59 12.4938C175.913 12.4938 175.295 12.6599 174.737 12.9921C174.179 13.3109 173.72 13.7627 173.362 14.3473C173.016 14.9186 172.817 15.5762 172.764 16.3202Z" fill="white"/>
<path d="M184.109 25.1887C184.295 25.202 184.474 25.2086 184.647 25.2086C184.819 25.2219 184.946 25.2153 185.025 25.1887C185.185 25.1621 185.338 25.0691 185.484 24.9097C185.63 24.7503 185.803 24.4447 186.002 23.9929C186.201 23.5412 186.48 22.8769 186.839 22L182.315 11.617H183.75L187.556 20.605L191.064 11.617H192.419L187.038 25.0093C186.945 25.2618 186.806 25.4943 186.62 25.7069C186.434 25.9327 186.201 26.1054 185.922 26.225C185.657 26.3579 185.324 26.4309 184.926 26.4442C184.806 26.4575 184.68 26.4575 184.547 26.4442C184.428 26.4442 184.281 26.4309 184.109 26.4044V25.1887Z" fill="white"/>
</svg>
